<svg xmlns="http://www.w3.org/2000/svg" width="256" height="256" viewBox="0 0 100 100"><path d="M24.12 34.53L24.12 34.53L24.12 37.57Q24.12 41.68 23.74 43.62Q23.36 45.55 22.07 47.38L22.07 47.38Q24.81 49.73 25.91 52.74Q27.01 55.74 27.01 62.05L27.01 62.05Q27.01 68.51 26.59 69.95Q26.17 71.39 25.64 72.65Q25.11 73.90 24.39 74.55Q23.67 75.19 22.53 75.99Q21.39 76.79 19.94 77.17L19.94 77.17Q16.45 78.08 12.11 78.08L12.11 78.08L0.18 77.47L0.18 22.75L10.59 21.92Q17.43 21.92 20.09 23.89L20.09 23.89Q21.16 24.65 21.80 25.26Q22.45 25.87 22.91 27.12Q23.36 28.38 23.59 29.21L23.59 29.21Q24.12 30.73 24.12 34.53ZM6.87 45.02L10.52 45.02Q15.08 45.02 16.22 43.73Q17.36 42.44 17.36 37.42Q17.36 32.41 16.10 30.47Q14.85 28.53 10.52 28.53L10.52 28.53L7.02 28.53L7.55 30.13L7.55 43.50L6.87 45.02ZM6.79 72.00L12.04 72.00Q17.43 72.00 18.92 69.99Q20.40 67.97 20.40 63.83Q20.40 59.69 20.17 57.83Q19.94 55.97 19.18 54.14L19.18 54.14Q17.59 50.42 12.04 50.42L12.04 50.42L6.79 50.42L7.48 52.01L7.48 70.41L6.79 72.00ZM40.08 38.26L39.85 38.26L39.85 72.91Q39.85 76.41 39.13 76.98Q38.41 77.55 34.38 77.55L34.38 77.55L32.71 77.55L32.71 22.83L34.46 22.83Q38.11 22.83 39.02 23.36Q39.93 23.89 41.37 27.01L41.37 27.01L49.66 45.93L51.18 45.93L61.36 22.83L62.50 22.83Q66.61 22.83 67.33 23.40Q68.05 23.97 68.05 27.47L68.05 27.47L68.05 77.55L66.38 77.55Q62.27 77.55 61.59 76.98Q60.91 76.41 60.91 72.91L60.91 72.91L60.83 38.33L60.60 38.33L54.98 51.94L52.93 55.74L47.91 55.74L45.86 51.94L40.08 38.26ZM82.91 41.53Q82.79 44.19 82.79 49.73Q82.79 55.28 82.91 57.94Q83.02 60.60 83.55 63.98Q84.09 67.37 85.38 68.73Q86.67 70.10 88.87 70.10Q91.08 70.10 94.88 69.76Q98.68 69.42 99.82 69.34L99.82 69.34L99.82 76.71Q99.13 76.79 95.30 77.44Q91.46 78.08 89.18 78.08Q86.90 78.08 85.07 77.59Q83.25 77.09 81.88 76.37Q80.51 75.65 79.45 74.17Q78.39 72.69 77.70 71.47Q77.02 70.25 76.56 67.94Q76.11 65.62 75.88 64.10Q75.65 62.58 75.50 59.58Q75.35 56.57 75.35 54.90L75.35 54.90L75.35 44.64Q75.35 39.17 75.73 36.62Q76.11 34.08 76.56 31.80Q77.02 29.52 77.70 28.34Q78.39 27.16 79.45 25.72Q80.51 24.27 81.88 23.59L81.88 23.59Q85.23 21.92 89.18 21.92L89.18 21.92L99.74 24.35Q99.13 28.76 97.46 29.82L97.46 29.82Q96.55 30.35 94.88 30.35Q93.21 30.35 90.93 29.90L90.93 29.90L88.80 29.37Q86.67 29.37 85.38 30.73Q84.09 32.10 83.55 35.48Q83.02 38.87 82.91 41.53Z" fill="#fff"></path></svg>